<svg xmlns="http://www.w3.org/2000/svg" width="32" height="32" id="gps">
  <path d="M16.137 4.547c-4.548 0-8.25 3.702-8.25 8.25 0 2.27.935 4.323 2.42 5.812.02.035.025.06.08.112l-.03-.03 3.436 3.858v-.158a.5.5 0 0 0 .125.33l1.844 2.093a.5.5 0 0 0 .375.17h.031a.5.5 0 0 0 .373-.168l1.875-2.093a.5.5 0 0 0 .127-.319v.145l3.844-4.36a.5.5 0 0 0 .117-.244c1.142-1.412 1.883-3.187 1.883-5.148 0-4.478-3.602-8.1-8.053-8.211a.5.5 0 0 0-.197-.04zm0 1a7.248 7.248 0 0 1 7.25 7.25 7.228 7.228 0 0 1-1.783 4.734.5.5 0 0 0-.079.121l-3.857 4.375a.5.5 0 0 0-.125.319v-.147l-1.387 1.549-1.363-1.547v.158a.5.5 0 0 0-.125-.332l-3.563-4a.5.5 0 0 0-.001 0c-.018-.032-.027-.058-.083-.113A7.21 7.21 0 0 1 8.887 12.8a7.248 7.248 0 0 1 7.25-7.25v-.002zm0 3.719a3.541 3.541 0 0 0-3.532 3.53 3.541 3.541 0 0 0 3.532 3.532 3.541 3.541 0 0 0 3.531-3.531 3.541 3.541 0 0 0-3.531-3.531zm0 1c1.4 0 2.531 1.13 2.531 2.53 0 1.401-1.131 2.532-2.531 2.532a2.529 2.529 0 0 1-2.532-2.531c0-1.4 1.132-2.531 2.532-2.531zm4.1 12.183a.5.5 0 0 0 .05 1h2.363l1.795 3.006H7.555l1.783-2.986h3.46a.5.5 0 1 0 0-1H9.054a.5.5 0 0 0-.43.244l-2.38 3.986a.5.5 0 0 0 .429.756h18.656a.5.5 0 0 0 .43-.756l-2.395-4.006a.5.5 0 0 0-.427-.244h-2.649a.5.5 0 0 0-.05 0z" color="#000" font-family="sans-serif" font-weight="400" overflow="visible" style="line-height:normal;text-indent:0;text-align:start;text-decoration-line:none;text-decoration-style:solid;text-decoration-color:#000;text-transform:none;block-progression:tb;isolation:auto;mix-blend-mode:normal"></path>
</svg>
