<svg width="40" height="40" viewBox="0 0 40 40" fill="none" xmlns="http://www.w3.org/2000/svg">
<g clip-path="url(#clip0_53_69)">
<path d="M23.3333 24.6V5.83332C23.3333 4.72825 22.8943 3.66845 22.1129 2.88704C21.3315 2.10564 20.2717 1.66666 19.1667 1.66666C18.0616 1.66666 17.0018 2.10564 16.2204 2.88704C15.439 3.66845 15 4.72825 15 5.83332V24.6C13.6621 25.4939 12.6472 26.7944 12.1051 28.3093C11.563 29.8243 11.5225 31.4734 11.9896 33.0132C12.4567 34.5529 13.4065 35.9016 14.6989 36.8601C15.9913 37.8186 17.5576 38.3361 19.1667 38.3361C20.7757 38.3361 22.3421 37.8186 23.6344 36.8601C24.9268 35.9016 25.8767 34.5529 26.3437 33.0132C26.8108 31.4734 26.7703 29.8243 26.2282 28.3093C25.6861 26.7944 24.6712 25.4939 23.3333 24.6Z" stroke="#1E1E1E" stroke-width="4" stroke-linecap="round" stroke-linejoin="round"/>
</g>
<defs>
<clipPath id="clip0_53_69">
<rect width="40" height="40" fill="white"/>
</clipPath>
</defs>
</svg>

